<?xml version="1.0" encoding="UTF-8" standalone="no"?><svg xmlns:svg="http://www.w3.org/2000/svg" xmlns="http://www.w3.org/2000/svg" version="1.1" style="overflow:visible" viewBox="-250 -250 500 500" height="2000px" width="2000px"><rect fill="rgb(255,255,255)" height="500" width="500" y="-250" x="-250" rx="100" ry="100" /><svg version="1.1" y="-250" x="-250" viewBox="-250 -250 500 500" height="500px" width="500px" style="overflow:visible"><g transform="rotate(18,0,0)" stroke-linejoin="round" fill="#fff"><path stroke-linecap="butt" stroke-linejoin="round" stroke="none" fill="rgb(255,255,255)" d="m24.701298 179.2999v50.79971h31.19948v-50.799711c-9.831783-14.06015-19.81044-24.487321-31.19948 0z" /><path stroke-linecap="butt" stroke-linejoin="round" stroke="none" fill="rgb(69,67,70)" d="m-0.041602-230.1c-13.41626 0-26.91221 4.058782-37.30142 13.20852c-10.389613 9.149712-16.88037 22.95956-18.32012 39.11804c-1.404234 15.75457 3.505983 29.23947 10.158005 40.10877c4.39335 7.456852 14.106169 9.901983 21.561668 5.427617c7.455864-4.474353 9.761063-14.13152 5.118555-21.43817c-4.87777-7.969793-6.571188-12.2629-5.758494-21.381752c0.892749-10.015616 4.085159-15.326351 7.973511-18.75055c3.888352-3.424369 9.265568-5.397405 16.56876-5.397405c13.169 0 24.74316 11.609078 24.74316 27.73212v350.7647h31.19948v-350.764701c0.01586-31.571801-24.5375-58.61986-55.94108-58.61986z" /><path stroke-linecap="butt" stroke-linejoin="round" stroke-width="12" stroke-opacity="1" stroke="rgb(169,169,169)" fill="none" d="m-0.041602-230.1c-13.41626 0-26.91221 4.058782-37.30142 13.20852c-10.389613 9.149712-16.88037 22.95956-18.32012 39.11804c-1.404234 15.75457 3.505983 29.23947 10.158005 40.10877c4.39335 7.456852 14.10539 9.901359 21.561668 5.426993c7.455864-4.474366 9.762012-14.131 5.119504-21.43817c-4.87777-7.969807-6.571188-12.2629-5.758494-21.381752c0.892749-10.015616 4.085159-15.326351 7.973511-18.75055c3.888352-3.424369 9.265568-5.397405 16.56876-5.397405c13.169 0 24.74316 11.609078 24.74316 27.73212v401.5739h31.19948v-401.573901c0.01586-31.571801-24.5375-58.61986-55.94108-58.61986z" /></g></svg></svg>